<svg xmlns="http://www.w3.org/2000/svg" width="1254" height="1254" viewBox="0 0 1254 1254" role="img" aria-label="Abstract English vocabulary icon">
  <rect x="0" y="0" width="1254" height="1254" rx="300" fill="#4B2D42"/>
  <circle cx="627" cy="597" r="380" fill="#F1EAE2"/>
  <g fill="#4B2D42">
    <path d="M 623 346 L 604 343 L 574 343 L 560 345 L 529 354 L 494 372 L 466 394 L 445 417 L 424 450 L 410 486 L 406 503 L 403 527 L 404 559 L 410 587 L 415 602 L 424 621 L 443 649 L 466 672 L 491 689 L 522 702 L 535 702 L 539 698 L 540 690 L 535 683 L 526 678 L 507 658 L 497 641 L 489 614 L 488 601 L 492 575 L 497 562 L 507 545 L 514 536 L 529 522 L 536 517 L 549 512 L 562 513 L 573 519 L 602 527 L 625 527 L 636 525 L 652 519 L 664 512 L 680 497 L 689 484 L 698 462 L 701 446 L 700 423 L 698 414 L 696 413 L 697 410 L 687 389 L 677 376 L 662 363 L 644 353 Z"/>
    <path d="M 726 516 L 721 516 L 717 518 L 714 522 L 714 530 L 719 536 L 732 544 L 747 559 L 758 577 L 763 590 L 763 594 L 765 596 L 764 599 L 766 599 L 766 623 L 764 624 L 762 637 L 752 660 L 744 672 L 723 693 L 711 700 L 702 702 L 694 701 L 664 688 L 647 685 L 629 686 L 610 691 L 590 702 L 573 718 L 562 735 L 557 747 L 558 749 L 556 750 L 553 763 L 553 773 L 552 770 L 552 786 L 554 798 L 556 799 L 555 802 L 557 802 L 557 808 L 564 822 L 567 824 L 567 827 L 571 830 L 570 831 L 576 838 L 591 851 L 608 861 L 630 869 L 650 873 L 657 872 L 660 874 L 678 874 L 680 872 L 689 873 L 691 871 L 696 872 L 728 863 L 760 847 L 780 832 L 801 811 L 812 797 L 831 765 L 842 735 L 848 706 L 849 676 L 844 640 L 833 607 L 816 577 L 797 555 L 780 541 L 766 532 L 748 523 Z"/>
  </g>
</svg>